<svg width="61" height="50" viewBox="0 0 61 50" fill="none" xmlns="http://www.w3.org/2000/svg">
    <circle cx="18.8384" cy="11.303" r="11.303" fill="#637E49"/>
    <circle cx="45.9656" cy="17.3313" r="6.78178" fill="#FBD7A9"/>
    <rect x="15.0708" y="28.6348" width="45.9292" height="21.0989" rx="10" fill="#FBD7A9"/>
    <path d="M0 38.6348C0 33.1119 4.47715 28.6348 10 28.6348H36.1695V39.7336C36.1695 45.2565 31.6923 49.7336 26.1695 49.7336H0V38.6348Z" fill="#637E49"/>
    <path d="M14.7241 16.6556C14.6002 16.6372 14.542 16.4923 14.6187 16.3933L18.0118 12.0144C18.1962 11.7764 18.5476 11.7542 18.7606 11.9671L19.1113 12.3178C19.3183 12.5248 19.3039 12.8647 19.0801 13.0535L14.8537 16.6188C14.8178 16.6491 14.7706 16.6625 14.7241 16.6556V16.6556Z" fill="#B1C677"/>
    <path d="M11.3123 4.91877C11.3309 4.70388 11.5815 4.59643 11.75 4.73105L20.3268 11.582C20.5598 11.7681 20.5791 12.1154 20.3683 12.3263L19.2514 13.4431C19.0458 13.6488 18.7086 13.6362 18.5189 13.4158L11.3767 5.11836C11.3292 5.06322 11.306 4.99126 11.3123 4.91877V4.91877Z" fill="#D3E2A8"/>
</svg>
