<svg width="66" height="57" viewBox="0 0 66 57" fill="none" xmlns="http://www.w3.org/2000/svg">
<path d="M0 0.479004H25.0128C30.5357 0.479004 35.0128 4.95616 35.0128 10.479V25.147H10C4.47715 25.147 0 20.6698 0 15.147V0.479004Z" fill="#A0568C"/>
<path d="M38.8433 0.479004H55.1764C60.6992 0.479004 65.1764 4.95616 65.1764 10.479V11.6707H48.8433C43.3204 11.6707 38.8433 7.1935 38.8433 1.67066V0.479004Z" fill="#FC8B8F"/>
<path d="M38.8433 13.8447H55.1764C60.6992 13.8447 65.1764 18.3219 65.1764 23.8447V25.0364H48.8433C43.3204 25.0364 38.8433 20.5592 38.8433 15.0364V13.8447Z" fill="#FA484D"/>
<path d="M65.1765 29.0476L65.1765 46.6574C65.1765 52.1803 60.6994 56.6574 55.1765 56.6574L54.5024 56.6574L54.5024 39.0476C54.5024 33.5248 58.9795 29.0476 64.5024 29.0476L65.1765 29.0476Z" fill="#10D1B8"/>
<path d="M49.5176 29.0476L49.5176 46.6574C49.5176 52.1803 45.0404 56.6574 39.5176 56.6574L38.8434 56.6574L38.8434 39.0476C38.8434 33.5248 43.3206 29.0476 48.8434 29.0476L49.5176 29.0476Z" fill="#D3E2A8"/>
<path d="M25.0129 29.0476C30.5358 29.0476 35.0129 33.5248 35.0129 39.0476L35.0129 56.6574L10.9772 56.6574C5.45437 56.6574 0.97721 52.1803 0.97721 46.6574L0.977211 29.0476L25.0129 29.0476Z" fill="#2E488B"/>
</svg>
