<svg width="67" height="45" viewBox="0 0 67 45" fill="none" xmlns="http://www.w3.org/2000/svg">
<path d="M0.711914 10.123C0.711914 4.6002 5.18907 0.123047 10.7119 0.123047H66.8086V8.09155C66.8086 13.6144 62.3314 18.0916 56.8086 18.0916H0.711914V10.123Z" fill="#FC8B8F"/>
<path d="M0.711914 9.69556H66.8086V34.2273C66.8086 39.7502 62.3314 44.2273 56.8086 44.2273H0.711914V9.69556Z" fill="#A0568C"/>
<path d="M0.711914 8.50562H66.8086V8.50562C66.8086 13.7998 62.5168 18.0916 57.2226 18.0916H10.2979C5.00371 18.0916 0.711914 13.7998 0.711914 8.50562V8.50562Z" fill="#FA484D"/>
<path d="M33.4855 37.0292C32.8997 37.615 32.8997 38.5647 33.4855 39.1505C34.0713 39.7363 35.021 39.7363 35.6068 39.1505L33.4855 37.0292ZM46.905 35.7076L45.4204 35.9223L46.905 35.7076ZM47.7513 35.9917L46.697 34.9247L47.7513 35.9917ZM44.9392 27.6968L45.9998 28.7575L44.9392 27.6968ZM45.7876 27.9788L47.2721 27.7642L45.7876 27.9788ZM35.6068 39.1505L45.9998 28.7575L43.8785 26.6362L33.4855 37.0292L35.6068 39.1505ZM44.303 28.1935L45.4204 35.9223L48.3896 35.493L47.2721 27.7642L44.303 28.1935ZM48.8056 37.0587L57.9145 28.0583L55.806 25.9243L46.697 34.9247L48.8056 37.0587ZM45.4204 35.9223C45.6552 37.5464 47.6383 38.2121 48.8056 37.0587L46.697 34.9247C47.2807 34.348 48.2722 34.6809 48.3896 35.493L45.4204 35.9223ZM45.9998 28.7575C45.4177 29.3396 44.4208 29.0083 44.303 28.1935L47.2721 27.7642C47.0365 26.1346 45.0428 25.4719 43.8785 26.6362L45.9998 28.7575Z" fill="white"/>
<path d="M61.3668 21.9957C61.7314 21.9046 62.0625 22.2333 61.9739 22.5986L60.3051 29.48C60.2133 29.8585 59.7431 29.9913 59.4668 29.7169L54.2659 24.5516C53.9896 24.2771 54.1192 23.8061 54.497 23.7117L61.3668 21.9957Z" fill="white"/>
</svg>
