<svg width="66" height="71" viewBox="0 0 66 71" fill="none" xmlns="http://www.w3.org/2000/svg">
<rect x="28.7352" y="3.06665" width="9.22618" height="10.0649" fill="#FBD7A9"/>
<path d="M20.8293 23.0504L34.3113 19.8413L46.3488 23.0504V29.0675H20.3478L20.8293 23.0504Z" fill="black"/>
<path d="M32.0903 22.3578L30.8322 18.1641L27.8966 18.5834L30.8322 26.1321L32.0903 22.3578Z" fill="white"/>
<path d="M34.6065 22.3578L35.8646 18.1641L38.8002 18.5834L35.8646 26.1321L34.6065 22.3578Z" fill="white"/>
<path d="M6.08916 51.2944C1.33628 41.3692 -2.13052 18.7511 22.0253 7.67969" stroke="black" stroke-width="5"/>
<path d="M59.7687 51.7138C64.5216 41.7887 67.9884 19.1705 43.8326 8.09912" stroke="black" stroke-width="5"/>
<path d="M16.1542 63.4561C20.6518 67.0812 33.6584 72.3065 49.7039 64.2061" stroke="black" stroke-width="5"/>
<circle cx="32.8769" cy="39.5518" r="6.29058" fill="#2E488B"/>
<circle cx="18.6183" cy="42.9069" r="3.77435" fill="#FBB844"/>
<circle cx="47.9744" cy="42.9069" r="3.77435" fill="#10D1B8"/>
<rect x="30.7802" y="49.1975" width="25.5615" height="11.7424" rx="5.87121" fill="#10D1B8"/>
<rect x="11.2727" y="49.1975" width="25.3786" height="11.7424" rx="5.87121" fill="#FBB844"/>
<path d="M22.3926 59.1975C22.3926 53.6747 26.8697 49.1975 32.3926 49.1975H42.5224V50.9399C42.5224 56.4628 38.0453 60.9399 32.5224 60.9399H22.3926V59.1975Z" fill="#2E488B"/>
<rect x="17.8835" y="19.8413" width="30.9294" height="10.5046" rx="5.25228" fill="#FA484D"/>
<ellipse cx="33.3485" cy="8.078" rx="7.42731" ry="7.5277" fill="#FA484D"/>
</svg>
