<svg width="72" height="65" viewBox="0 0 72 65" fill="none" xmlns="http://www.w3.org/2000/svg">
<path d="M36.1572 0.486029L42.0411 5.43357L24.2969 20.3539L18.4256 15.3662L36.1572 0.486029Z" fill="#FBB844"/>
<rect width="7.68089" height="23.1834" transform="matrix(0.76538 0.643579 -0.76538 0.643578 47.6278 10.1309)" fill="#974782"/>
<rect width="7.2725" height="23.1834" transform="matrix(0.76538 0.643579 -0.76538 0.643578 42.0542 5.44434)" fill="#F85B23"/>
<path d="M35.6124 29.9035L53.4579 15.1309V25.569L36.0337 40.1752L35.6124 29.9035Z" fill="#974782"/>
<path d="M29.8837 25.0359H36.1442V40.1534L29.8837 35.0342V25.0359Z" fill="#974782"/>
<path d="M24.3101 20.3196H29.8837V35.0269L24.3101 30.1991V20.3196Z" fill="#F85B23"/>
<path d="M18.4128 15.3662H24.31V30.1855L18.4128 25.2917V15.3662Z" fill="#FBB844"/>
<path d="M53.4936 25.06L47.6097 30.0075L65.3538 44.9279L71.2252 39.9402L53.4936 25.06Z" fill="#FBB844"/>
<rect width="7.68089" height="23.1834" transform="matrix(-0.76538 0.643579 0.76538 0.643578 42.0229 34.7048)" fill="#974782"/>
<rect width="7.2725" height="23.1834" transform="matrix(-0.76538 0.643579 0.76538 0.643578 47.5966 30.0183)" fill="#F85B23"/>
<path d="M54.0383 54.4775L36.1928 39.7048V50.143L53.6171 64.7492L54.0383 54.4775Z" fill="#974782"/>
<path d="M59.7671 49.6099H53.5066V64.7274L59.7671 59.6082V49.6099Z" fill="#974782"/>
<path d="M65.3407 44.8936H59.7671V59.6008L65.3407 54.7731V44.8936Z" fill="#F85B23"/>
<path d="M71.2379 39.9402H65.3408V54.7595L71.2379 49.8656V39.9402Z" fill="#FBB844"/>
<path d="M18.2067 25.0908L12.3228 30.0383L30.067 44.9587L35.9383 39.9709L18.2067 25.0908Z" fill="#FBB844"/>
<rect width="7.68089" height="23.1834" transform="matrix(-0.76538 0.643579 0.76538 0.643578 6.73608 34.7356)" fill="#974782"/>
<rect width="7.2725" height="23.1834" transform="matrix(-0.76538 0.643579 0.76538 0.643578 12.3097 30.0491)" fill="#F85B23"/>
<path d="M18.7515 54.5083L0.905948 39.7356V50.1737L18.3302 64.78L18.7515 54.5083Z" fill="#974782"/>
<path d="M24.4802 49.6406H18.2197V64.7581L24.4802 59.6389V49.6406Z" fill="#974782"/>
<path d="M30.0538 44.9243H24.4802V59.6316L30.0538 54.8038V44.9243Z" fill="#F85B23"/>
<path d="M35.951 39.9709H30.0539V54.7902L35.951 49.8964V39.9709Z" fill="#FBB844"/>
</svg>
