<svg width="52" height="63" viewBox="0 0 52 63" fill="none" xmlns="http://www.w3.org/2000/svg">
<circle cx="21.9063" cy="7.03545" r="6.29058" fill="#2E488B"/>
<circle cx="27.7771" cy="59.043" r="3.0625" fill="#A0568C"/>
<circle cx="45.3711" cy="59.043" r="3.0625" fill="#A0568C"/>
<circle cx="7.64764" cy="10.3906" r="3.77435" fill="#FBB844"/>
<circle cx="37.0036" cy="10.3906" r="3.77435" fill="#10D1B8"/>
<rect x="19.8096" y="16.6812" width="25.5615" height="34.6465" rx="10" fill="#10D1B8"/>
<rect x="0.302002" y="16.6812" width="25.3786" height="34.6465" rx="10" fill="#FBB844"/>
<path d="M11.4219 26.6812C11.4219 21.1583 15.899 16.6812 21.4219 16.6812H31.5517V41.3276C31.5517 46.8505 27.0746 51.3276 21.5517 51.3276H11.4219V26.6812Z" fill="#2E488B"/>
<path d="M23.1614 45.6599C23.1614 40.1371 27.6385 35.6599 33.1614 35.6599H51.7725V41.3276C51.7725 46.8505 47.2953 51.3276 41.7725 51.3276H23.1614V45.6599Z" fill="#A0568C"/>
<path d="M22.698 54.7798C22.698 53.3725 23.8388 52.2317 25.2461 52.2317H51.3091V52.2317C51.3091 53.639 50.1683 54.7798 48.761 54.7798H22.698V54.7798Z" fill="#F85B23"/>
<path d="M16.1667 39.157C16.1667 37.7497 17.3076 36.6089 18.7148 36.6089H24.7146V36.6089C24.7146 38.0162 23.5738 39.157 22.1665 39.157H16.1667V39.157Z" fill="#F85B23"/>
</svg>
