<svg width="55" height="62" viewBox="0 0 55 62" fill="none" xmlns="http://www.w3.org/2000/svg">
<path d="M5.11961 13.5968C2.3826 15.177 0.696533 18.0974 0.696533 21.2578V47.3996L27.7591 31.007V0.525879L5.11961 13.5968Z" fill="#FBB844"/>
<path d="M54.8217 21.2507C54.8217 18.0903 53.1356 15.177 50.3986 13.5968L27.7591 0.525879V31.007C27.7591 31.007 44.2531 40.9979 54.8217 47.3996C54.8217 39.1427 54.8217 27.7537 54.8217 21.2507Z" fill="#A0568C"/>
<path d="M23.336 60.4706C26.073 62.0508 29.4391 62.0543 32.1761 60.4741C37.8078 57.2226 47.671 51.5281 54.8217 47.3996C44.2531 40.9979 27.7591 31.007 27.7591 31.007L0.696533 47.3996L23.336 60.4706Z" fill="#F85B23"/>
<path d="M40.3792 31.775C40.3792 38.6665 34.729 44.2531 27.7591 44.2531C20.7893 44.2531 15.1391 38.6665 15.1391 31.775C15.1391 24.8836 20.7893 19.2969 27.7591 19.2969C34.729 19.2969 40.3792 24.8836 40.3792 31.775Z" fill="white"/>
</svg>
