<svg width="80" height="70" viewBox="0 0 80 70" fill="none" xmlns="http://www.w3.org/2000/svg">
<path d="M38.7583 7.75366C44.7427 8.16169 58.0989 12.1604 63.6481 24.8909" stroke="black" stroke-width="5"/>
<path d="M58.3437 57.9412C55.6235 61.0694 47.8981 67.3258 38.7583 67.3258" stroke="black" stroke-width="5"/>
<path d="M8.15615 46.1083C6.93207 42.436 6.11596 33.8674 8.97221 26.9309" stroke="black" stroke-width="5"/>
<path d="M19.5809 11.2185C19.5809 16.7414 24.0581 21.2185 29.5809 21.2185H39.1663V17.3455C39.1663 11.8227 34.6892 7.34553 29.1663 7.34553H19.5809V11.2185Z" fill="#A0568C"/>
<path d="M4.89197 10.8171C4.89197 5.2943 9.36912 0.817139 14.892 0.817139H31.8219V12.0346C31.8219 17.5575 27.3447 22.0346 21.8219 22.0346H4.89197V10.8171Z" fill="#FBB844"/>
<path d="M4.89197 22.0347C4.89197 17.9784 8.18022 14.6902 12.2365 14.6902H31.8219V14.6902C31.8219 18.7464 28.5336 22.0347 24.4773 22.0347H4.89197V22.0347Z" fill="#D0880A"/>
<circle cx="12.2366" cy="22.0348" r="4.89635" fill="#1D4B6B"/>
<circle cx="31.0058" cy="22.0348" r="4.89635" fill="#1D4B6B"/>
<rect x="47.3269" y="45.7002" width="32.6423" height="7.34452" rx="3.67226" fill="#2E488B"/>
<path d="M62.0159 37.7471C62.0159 32.2242 66.493 27.7471 72.0159 27.7471H79.9691V33.2522C79.9691 38.775 75.492 43.2522 69.9691 43.2522H62.0159V37.7471Z" fill="#1D4B6B"/>
<path d="M47.3269 41.6198C47.3269 39.3664 49.1537 37.5396 51.4072 37.5396H60.3838V37.5396C60.3838 39.793 58.557 41.6198 56.3035 41.6198H47.3269V41.6198Z" fill="#A0568C"/>
<path d="M47.3269 35.0918C47.3269 32.8383 49.1537 31.0115 51.4072 31.0115H60.3838V31.0115C60.3838 33.265 58.557 35.0918 56.3035 35.0918H47.3269V35.0918Z" fill="#A0568C"/>
<circle cx="19.1729" cy="48.5565" r="6.12043" fill="#974782"/>
<circle cx="5.29994" cy="51.8209" r="3.67226" fill="#FBB844"/>
<circle cx="33.0459" cy="51.8209" r="3.67226" fill="#10D1B8"/>
<rect x="17.1328" y="57.9412" width="21.2175" height="11.4248" rx="5.7124" fill="#10D1B8"/>
<rect x="0.811646" y="57.9412" width="22.0336" height="11.4248" rx="5.7124" fill="#FBB844"/>
<path d="M8.97229 67.9412C8.97229 62.4183 13.4494 57.9412 18.9723 57.9412H28.5577V59.366C28.5577 64.8888 24.0805 69.366 18.5577 69.366H8.97229V67.9412Z" fill="#974782"/>
</svg>
